<?xml version="1.0" encoding="UTF-8"?>
<svg version="1.1" xmlns="http://www.w3.org/2000/svg" width="402" height="402">
<path d="M0 0 C132.66 0 265.32 0 402 0 C402 132.66 402 265.32 402 402 C269.34 402 136.68 402 0 402 C0 269.34 0 136.68 0 0 Z " fill="#0C0C10" transform="translate(0,0)"/>
<path d="M0 0 C5.671875 -0.061875 11.34375 -0.12375 17.1875 -0.1875 C19.86008911 -0.22846802 19.86008911 -0.22846802 22.58666992 -0.27026367 C24.00959598 -0.27903108 25.4325296 -0.28667442 26.85546875 -0.29296875 C27.95066833 -0.3159906 27.95066833 -0.3159906 29.06799316 -0.33947754 C33.56401234 -0.34177338 36.43146785 0.20788134 40 3 C41.84107946 6.68215893 41.415029 11.24191774 41.60546875 15.32226562 C41.46639287 18.96489454 41.46639287 18.96489454 43 22 C43.1810363 24.59980001 43.27813914 27.14773781 43.3125 29.75 C43.34150391 30.46671875 43.37050781 31.1834375 43.40039062 31.921875 C43.44111189 35.32993158 43.15973863 37.70460166 41.53100586 40.71655273 C37.85094295 44.03666737 34.8728955 43.6375595 30.078125 43.48828125 C29.3154834 43.48324585 28.5528418 43.47821045 27.76708984 43.47302246 C24.92767559 43.44693009 22.0887987 43.37712213 19.25 43.3125 C9.72125 43.1578125 9.72125 43.1578125 0 43 C0 28.81 0 14.62 0 0 Z " fill="#F8F8F8" transform="translate(333,181)"/>
<path d="M0 0 C8.971875 -0.1546875 8.971875 -0.1546875 18.125 -0.3125 C20.00203613 -0.35802002 21.87907227 -0.40354004 23.81298828 -0.45043945 C25.31541155 -0.46505447 26.81785475 -0.47779274 28.3203125 -0.48828125 C29.08851318 -0.51386108 29.85671387 -0.53944092 30.64819336 -0.5657959 C34.6511496 -0.56901889 37.26148357 -0.22272814 40.49267578 2.2512207 C42.99890817 4.99880303 43.76380092 5.86210038 43.796875 9.46875 C43.80847656 10.69658203 43.80847656 10.69658203 43.8203125 11.94921875 C43.79710937 12.79097656 43.77390625 13.63273438 43.75 14.5 C43.77320313 15.34175781 43.79640625 16.18351562 43.8203125 17.05078125 C43.78000759 21.31638442 43.34242278 23.50279201 40.8828125 27.07421875 C35.56336599 30.72025604 28.27423569 29.50826495 22.125 29.3125 C20.75524892 29.28739222 19.38545365 29.26458339 18.015625 29.24414062 C14.67660906 29.18535513 11.33816245 29.09567982 8 29 C8 33.95 8 38.9 8 44 C5.36 44 2.72 44 0 44 C0 29.48 0 14.96 0 0 Z " fill="#07F0F7" transform="translate(74,181)"/>
<path d="M0 0 C1.0370105 -0.00361794 1.0370105 -0.00361794 2.0949707 -0.00730896 C3.55067708 -0.00633331 5.00642186 0.00699336 6.46191406 0.03198242 C8.6816291 0.06631544 10.8973626 0.05262782 13.1171875 0.03320312 C14.53647516 0.04010211 15.95575262 0.04977499 17.375 0.0625 C18.65761719 0.07337646 19.94023438 0.08425293 21.26171875 0.09545898 C25.21739552 0.7114192 26.87466827 1.83727513 29.6875 4.62890625 C31.04189668 7.3376996 30.75251451 9.63823893 30.6875 12.62890625 C28.0475 12.62890625 25.4075 12.62890625 22.6875 12.62890625 C22.6875 11.30890625 22.6875 9.98890625 22.6875 8.62890625 C13.7775 8.62890625 4.8675 8.62890625 -4.3125 8.62890625 C-4.3125 11.92890625 -4.3125 15.22890625 -4.3125 18.62890625 C-3.04188721 18.58963013 -3.04188721 18.58963013 -1.74560547 18.54956055 C1.41888062 18.4639812 4.58277406 18.40148528 7.74804688 18.35424805 C9.11380503 18.32921345 10.47943067 18.29517407 11.84472656 18.25170898 C24.63981986 17.85478091 24.63981986 17.85478091 28.57421875 20.6796875 C31.24146381 24.40199808 31.46154273 26.57402567 31.375 31.12890625 C31.38080078 33.0625 31.38080078 33.0625 31.38671875 35.03515625 C30.50936263 39.54447263 29.27313432 40.8086475 25.6875 43.62890625 C22.88197093 44.11730901 20.69638872 44.31033087 17.90234375 44.2578125 C17.16423965 44.26022446 16.42613556 44.26263641 15.66566467 44.26512146 C14.11160893 44.26414551 12.55751735 44.25081167 11.00366211 44.22583008 C8.62819256 44.19145245 6.25643278 44.20519588 3.88085938 44.22460938 C2.36717171 44.217712 0.85349361 44.20804059 -0.66015625 44.1953125 C-1.36753433 44.20027237 -2.07491241 44.20523224 -2.8037262 44.21034241 C-6.16099801 44.13030375 -8.03642567 43.83080972 -10.77514648 41.82788086 C-12.93640072 38.73650132 -12.59524532 36.3045954 -12.3125 32.62890625 C-9.6725 32.62890625 -7.0325 32.62890625 -4.3125 32.62890625 C-4.3125 33.94890625 -4.3125 35.26890625 -4.3125 36.62890625 C4.5975 36.62890625 13.5075 36.62890625 22.6875 36.62890625 C22.6875 33.32890625 22.6875 30.02890625 22.6875 26.62890625 C21.36359253 26.66818237 21.36359253 26.66818237 20.01293945 26.70825195 C16.7233842 26.793709 13.43501578 26.8562637 10.14477539 26.90356445 C8.72368709 26.92863772 7.30272687 26.96270624 5.88208008 27.00610352 C3.83382538 27.06708483 1.78728117 27.09518387 -0.26171875 27.1171875 C-2.10769653 27.15646362 -2.10769653 27.15646362 -3.9909668 27.1965332 C-8.25372032 26.46805823 -9.69329256 25.00480744 -12.3125 21.62890625 C-12.82009417 18.71471852 -13.01746569 16.51833335 -12.9375 13.62890625 C-12.95683594 12.93023437 -12.97617187 12.2315625 -12.99609375 11.51171875 C-12.96121726 7.81481091 -12.49857502 5.86983613 -10.22802734 2.92993164 C-6.56786661 0.04121828 -4.6222214 -0.00261306 0 0 Z " fill="#07F2F9" transform="translate(38.3125,180.37109375)"/>
<path d="M0 0 C9 0 9 0 12.3359375 2.82421875 C13.37600491 4.09023529 14.38809723 5.37961583 15.375 6.6875 C16.18855957 7.69623169 16.18855957 7.69623169 17.01855469 8.7253418 C18.13986124 10.11587294 19.2511837 11.51451242 20.35253906 12.92089844 C22.89469175 16.12910417 25.5780858 19.21242286 28.25 22.3125 C32.83387918 27.66775837 32.83387918 27.66775837 34 30 C34.33 20.1 34.66 10.2 35 0 C37.97 0 40.94 0 44 0 C44 14.52 44 29.04 44 44 C35 44 35 44 32.46875 42.19921875 C31.8190625 41.37035156 31.169375 40.54148438 30.5 39.6875 C29.75878906 38.77355469 29.01757812 37.85960937 28.25390625 36.91796875 C27.13822266 35.47357422 27.13822266 35.47357422 26 34 C24.48145687 32.16476925 22.96063595 30.33142076 21.4375 28.5 C17.26256256 23.35660728 13.13839476 18.17299345 9 13 C8.67 23.23 8.34 33.46 8 44 C5.36 44 2.72 44 0 44 C0 29.48 0 14.96 0 0 Z " fill="#08EAF1" transform="translate(131,181)"/>
<path d="M0 0 C0.83637497 0.00707474 1.67274994 0.01414948 2.5344696 0.0214386 C5.19447927 0.0493314 7.85235014 0.11205644 10.51171875 0.17578125 C12.31963096 0.20087091 14.12757632 0.22368292 15.93554688 0.24414062 C20.35758948 0.29914083 24.77804206 0.38537482 29.19921875 0.48828125 C29.19921875 3.12828125 29.19921875 5.76828125 29.19921875 8.48828125 C17.64921875 8.48828125 6.09921875 8.48828125 -5.80078125 8.48828125 C-5.80078125 17.39828125 -5.80078125 26.30828125 -5.80078125 35.48828125 C5.74921875 35.48828125 17.29921875 35.48828125 29.19921875 35.48828125 C29.19921875 38.45828125 29.19921875 41.42828125 29.19921875 44.48828125 C24.03980187 44.61228735 18.88126053 44.70280992 13.72070312 44.76293945 C11.9669686 44.78801592 10.21333789 44.8220862 8.45996094 44.86547852 C5.93268169 44.92643729 3.40678894 44.95455844 0.87890625 44.9765625 C0.10054413 45.00236893 -0.67781799 45.02817535 -1.47976685 45.05476379 C-5.34470946 45.05673541 -8.09613783 44.7163386 -11.2956543 42.44213867 C-14.34562873 38.84583805 -14.66097193 36.26299325 -14.5625 31.73828125 C-14.56586868 31.00254883 -14.56923737 30.26681641 -14.57270813 29.50878906 C-14.57241017 27.958913 -14.55724401 26.40897661 -14.52807617 24.859375 C-14.48838151 22.49425491 -14.50737665 20.13474416 -14.53320312 17.76953125 C-14.52564332 16.25909295 -14.51468913 14.74866704 -14.5 13.23828125 C-14.5069841 12.53606445 -14.5139682 11.83384766 -14.52116394 11.11035156 C-14.41808839 7.5049214 -13.83497163 5.53893879 -11.80712891 2.53442383 C-7.73969681 -0.23390071 -4.80679506 -0.15401867 0 0 Z " fill="#EDEDED" transform="translate(205.80078125,180.51171875)"/>
<path d="M0 0 C2.64 0 5.28 0 8 0 C8.12383064 5.32014516 8.21444676 10.63944714 8.2746582 15.96069336 C8.2997639 17.76976132 8.33385595 19.57872822 8.37719727 21.38745117 C8.43802579 23.99162751 8.46624809 26.59446031 8.48828125 29.19921875 C8.51408768 30.00461594 8.5398941 30.81001312 8.56648254 31.63981628 C8.56850469 35.71141647 8.30188371 37.5553237 5.95605469 41.01074219 C2.31558962 43.46056952 -0.53686766 43.70875936 -4.78515625 43.62890625 C-5.52326035 43.63131821 -6.26136444 43.63373016 -7.02183533 43.63621521 C-8.57589107 43.63523926 -10.12998265 43.62190542 -11.68383789 43.59692383 C-14.05930744 43.5625462 -16.43106722 43.57628963 -18.80664062 43.59570312 C-20.32032829 43.58880575 -21.83400639 43.57913434 -23.34765625 43.56640625 C-24.05503433 43.57136612 -24.76241241 43.57632599 -25.4912262 43.58143616 C-28.64299926 43.50629667 -30.74467033 43.15518943 -33.45385742 41.50854492 C-35.69671352 37.86961449 -35.49604108 34.43566457 -35.390625 30.296875 C-35.38496521 29.45908508 -35.37930542 28.62129517 -35.37347412 27.75811768 C-35.35112329 25.08815834 -35.30093098 22.41955213 -35.25 19.75 C-35.22993325 17.93751941 -35.21168278 16.12501774 -35.1953125 14.3125 C-35.15126294 9.87448041 -35.08224566 5.43746944 -35 1 C-32.69 1 -30.38 1 -28 1 C-27.67 12.22 -27.34 23.44 -27 35 C-13.635 35.495 -13.635 35.495 0 36 C0 24.12 0 12.24 0 0 Z " fill="#FBFBFC" transform="translate(320,181)"/>
<path d="M0 0 C2.31 0 4.62 0 7 0 C7 11.88 7 23.76 7 36 C18.88 36 30.76 36 43 36 C43 38.31 43 40.62 43 43 C28.81 43 14.62 43 0 43 C0 28.81 0 14.62 0 0 Z " fill="#FDFDFD" transform="translate(240,181)"/>
<path d="M0 0 C2.64 0 5.28 0 8 0 C8 14.52 8 29.04 8 44 C5.36 44 2.72 44 0 44 C0 29.48 0 14.96 0 0 Z " fill="#08F0F7" transform="translate(119,181)"/>
<path d="M0 0 C8.91 0 17.82 0 27 0 C27 4.29 27 8.58 27 13 C18.09 13 9.18 13 0 13 C0 8.71 0 4.42 0 0 Z " fill="#0C1317" transform="translate(82,189)"/>
<path d="M0 0 C8.91 0 17.82 0 27 0 C27 3.3 27 6.6 27 10 C18.09 10 9.18 10 0 10 C0 6.7 0 3.4 0 0 Z " fill="#141418" transform="translate(341,207)"/>
<path d="M0 0 C8.25 0 16.5 0 25 0 C25 3.3 25 6.6 25 10 C16.75 10 8.5 10 0 10 C0 6.7 0 3.4 0 0 Z " fill="#1A1A1D" transform="translate(341,189)"/>
<path d="M0 0 C2.97 0 5.94 0 9 0 C9 0.33 9 0.66 9 1 C6.69 1.33 4.38 1.66 2 2 C2 15.2 2 28.4 2 42 C3.65 42 5.3 42 7 42 C7 32.43 7 22.86 7 13 C7.33 13 7.66 13 8 13 C8 23.23 8 33.46 8 44 C5.36 44 2.72 44 0 44 C0 29.48 0 14.96 0 0 Z " fill="#11DFE4" transform="translate(131,181)"/>
</svg>
